<?xml version="1.0" standalone="no"?> <!DOCTYPE svg PUBLIC "-//W3C//DTD SVG 1.0//EN" "http://www.w3.org/TR/2001/REC-SVG-20010904/DTD/svg10.dtd" > <svg xmlns="http://www.w3.org/2000/svg" width="100%" height="100%">
<defs >
<font horiz-adv-x="518" ><font-face
    font-family="STC Regular"
    units-per-em="1000"
    panose-1="1 0 5 0 0 0 0 2 0 6"
    ascent="1054"
    descent="-602"
    alphabetic="0" />
<missing-glyph horiz-adv-x="500" d="M62 0V562H437V0H62ZM125 62H375V500H125V62Z" />
<glyph unicode=" " glyph-name="space" horiz-adv-x="256" />
<glyph unicode="!" glyph-name="exclam" horiz-adv-x="219" d="M153 175Q153 163 146 155T128 147H75V581Q75 593 82 601T101 609H153V175ZM62 51Q62 72 76 86T112 101Q133 101 147 87T162 51Q162 29 148 15T112 0Q91 0 77 14T62 51Z" />
<glyph unicode="&quot;" glyph-name="quotedbl" horiz-adv-x="305" d="M233 440Q234 426 225 417T204 408H175Q173 459 171 504T167 601Q167 615 175 624T198 633H241L233 440ZM114 440Q115 426 106 417T85 408H56Q54 459 52 504T48 601Q48 615 56 624T79 633H122L114
440Z" />
<glyph unicode="#" glyph-name="numbersign" horiz-adv-x="595" d="M327 0Q315 0 308 7T303 33L335 186H195Q183 129 173 81T154 0H117Q105 0 98 7T93 33L125 186H81Q69 185 61 192T53 210V247H138L178 433H132Q120 432 112 439T104 457V494H191L232 680H269Q281
680 288 673T293 647Q291 642 283 600T260 494H401L442 680H479Q491 680 498 673T503 647Q501 642 493 600T470 494H515Q527 494 534 487T542 468V433H458L418 247H464Q476 247 483 240T491 221V186H405Q393 129 383 81T364 0H327ZM208 247H348L388 433H248L208
247Z" />
<glyph unicode="$" glyph-name="dollar" horiz-adv-x="590" d="M256 778H317V635Q351 632 379 627T427 615Q451 608 469 601V565Q469 554 465 549T443 545Q435 547 419 551T380 561T332 570T279 574Q232 574 205 567T163 547T144 516T139 475Q139 442 153 424T188
396T235 384T278 378T317 374T362 367T410 351T453 323T485 277T498 210Q498 175 490 145T460 90T402 51T311 31V-98H250V30Q228 31 204 34T157 41T114 51T79 62V111Q79 120 84 123T97 124Q113 118 158 107T263 96Q351 96 388 123T425 206Q425 246 405 267T357
299T298 313T244 318T188 328T130 351T87 395T69 471Q69 517 84 548T124 598T184 625T256 636V778Z" />
<glyph unicode="%" glyph-name="percent" horiz-adv-x="568" d="M430 625Q426 619 382 549T63 40L107 13Q113 9 118 8T131 9T144 22Q147 26 515 614L480 636Q471 641 463 642T446 640T430 625ZM423 22Q392 22 373 30T342 53T326 89T322 135Q322 160 326 181T341
217T372 240T423 249Q454 249 473 241T504 217T519 181T524 135Q524 110 520 89T504 53T474 30T423 22ZM423 199Q388 199 381 181T373 135Q373 121 374 110T380 90T395 77T423 72Q441 72 450 77T465 90T471 109T472 135Q472 149 471 160T465 180T451 194T423 199ZM151
441Q120 441 101 449T70 472T54 508T49 554Q49 579 53 600T69 636T100 659T151 667Q182 667 201 659T232 636T248 600T252 554Q252 529 248 508T233 472T202 449T151 441ZM151 618Q116 618 109 600T101 554Q101 540 102 529T108 509T123 496T151 491Q168 491 178
496T193 509T199 528T201 554Q201 582 193 600T151 618Z" />
<glyph unicode="&amp;" glyph-name="ampersand" horiz-adv-x="633" d="M562 349Q559 317 552 284T536 221T515 164T491 118Q525 80 545 58T569 32Q578 22 578 16T575 7T568 2T562 0H500Q488 14 473 30T441 67Q414 36 367 12T248 -12Q143 -12 92 37T41 177Q41 216
52 245T81 296T124 336T174 369Q160 386 146 407T120 450T101 495T93 539Q93 611 135 651T269 692Q328 692 366 682T420 663V626Q420 616 417 613T410 609T401 610T393 613Q369 622 339 629T277 636Q248 636 228 629T194 608T175 577T169 539Q169 524 176 505T193
467T216 430T239 402L445 167Q466 214 480 268T494 381H536Q550 381 556 372T562 349ZM216 325Q166 298 141 265T116 180Q116 118 151 81T250 43Q303 43 340 63T398 111L216 325Z" />
<glyph unicode="&apos;" glyph-name="quotesingle" horiz-adv-x="172" d="M111 440Q112 426 103 417T82 408H53Q51 459 49 504T45 601Q45 615 53 624T76 633H119L111 440Z" />
<glyph unicode="(" glyph-name="parenleft" horiz-adv-x="300" d="M237 662Q217 624 200 590T170 520T150 440T142 342Q142 294 151 249T174 162T205 85T238 21Q243 13 237 7T221 0H172Q171 0 154 28T117 103T81 210T64 334Q64 410 81 473T118 583T155 655T173
681H224Q232 681 237 676T237 662Z" />
<glyph unicode=")" glyph-name="parenright" horiz-adv-x="300" d="M64 662Q59 671 64 676T77 681H128Q163 629 183 583T220 474T237 334Q237 271 221 211T184 104T129 0H80Q70 0 64 6T63 21Q79 49 96 84T127 161T150 248T159 342Q159 397 152 440T131 519T101
590T64 662Z" />
<glyph unicode="*" glyph-name="asterisk" horiz-adv-x="377" d="M95 643Q88 653 90 664T101 680L125 695L188 594L237 672Q252 695 274 681L297 667L236 570H324Q336 570 343 563T351 544V517H236L283 442Q290 432 288 422T275 406L253 391L188 494L139 415Q134
404 123 402T104 404L79 420L140 517H54Q42 517 34 524T26 541V570H141L95 643Z" />
<glyph unicode="+" glyph-name="plus" horiz-adv-x="375" d="M150 368Q150 380 156 387T175 395H227V289H306Q318 289 325 282T333 263V212H227V134Q227 121 220 114T202 106H150V212H71Q59 212 51 219T43 236V289H150V368Z" />
<glyph unicode="," glyph-name="comma" horiz-adv-x="199" d="M97 104Q123 104 140 86T157 40Q157 21 151 2T137 -36T120 -69T106 -95L67 -82Q47 -74 57 -50L75 -9Q59 -2 49 12T38 46Q38 71 55 87T97 104Z" />
<glyph unicode="-" glyph-name="hyphen" horiz-adv-x="373" d="M68 212Q56 212 48 219T40 236V289H302Q314 289 321 282T329 263V212H68Z" />
<glyph unicode="." glyph-name="period" horiz-adv-x="184" d="M47 51Q47 72 61 86T97 101Q119 101 133 87T148 51Q148 29 134 15T97 0Q76 0 62 14T47 51Z" />
<glyph unicode="/" glyph-name="slash" horiz-adv-x="395" d="M109 -61H47Q35 -61 28 -53T28 -28L284 664H346Q358 664 364 657T365 631L109 -61Z" />
<glyph unicode="0" glyph-name="zero" horiz-adv-x="542" d="M273 -6Q198 -6 154 21T85 96T54 206T47 341Q47 412 56 472T91 577T160 646T273 671Q346 671 390 646T459 577T491 473T499 341Q499 270 495 207T468 96T401 22T273 -6ZM273 605Q225 605 196 588T151
538T130 455T125 341Q125 271 130 220T150 135T195 85T273 68Q321 68 350 83T395 132T416 217T422 341Q422 404 417 453T396 536T351 587T273 605Z" />
<glyph unicode="1" glyph-name="one" horiz-adv-x="309" d="M207 666Q231 666 231 639V23Q231 12 229 6T212 0H154V592H69Q58 592 53 597T48 618V666H207V666Z" />
<glyph unicode="2" glyph-name="two" horiz-adv-x="513" d="M74 625Q103 637 135 648Q162 656 196 663T266 671Q320 671 357 660T418 627T452 578T463 515Q463 483 451 454T417 393T363 328T293 253Q255 212 226 179T175 123Q150 96 132 74H457Q466 74 472 72T479
55V0H112Q87 0 71 12T50 44T49 84T71 123Q88 140 109 162T153 210T201 262T249 311Q312 375 351 423T391 512Q391 560 362 582T261 605Q214 605 179 594T121 572Q109 566 104 567T95 578L74 625V625Z" />
<glyph unicode="3" glyph-name="three" horiz-adv-x="484" d="M352 350Q376 344 393 333T422 304T439 257T445 190Q445 150 438 116T409 56T344 15T231 0Q199 0 165 5T103 19Q70 28 40 39L58 93Q62 109 81 102Q98 96 138 85T230 74Q263 74 288 78T329 96T354 132T363
192Q363 220 359 242T344 279T312 301T258 309H121V364Q121 377 128 381T147 386H232Q267 386 289 391T325 409T344 446T350 504Q350 562 316 583T226 605Q185 605 150 595T88 578Q76 575 71 576T62 587L51 638Q75 647 103 654Q127 660 158 665T227 671Q293 671
333 656T394 617T422 563T429 501Q429 477 426 454T415 410T392 373T352 350Z" />
<glyph unicode="4" glyph-name="four" horiz-adv-x="517" d="M463 244Q478 244 483 237T488 220V170H408V14Q407 1 401 -3T384 -8H330V170H88Q76 170 61 177T36 199T25 236T38 278L276 620Q295 645 314 658T360 668T397 648T408 605V244H463ZM330 581L101 243H330V581Z" />
<glyph unicode="5" glyph-name="five" horiz-adv-x="501" d="M448 618Q448 608 445 601T427 594H190L135 388H264Q312 388 348 379T408 348T444 290T456 199Q456 148 441 109T399 44T333 5T250 -8Q209 -8 174 -1T113 15Q82 26 57 39L76 93Q79 103 86 103T100 100Q104
98 116 93T148 83T190 73T240 68Q290 68 318 80T361 111T378 153T382 199Q382 233 374 256T351 292T316 311T271 317H111Q75 317 64 337T56 379L116 601Q122 626 133 639T156 658T181 665T205 666H448V618Z" />
<glyph unicode="6" glyph-name="six" horiz-adv-x="517" d="M276 403Q315 403 351 398T416 372T461 311T478 203Q478 158 467 119T430 52T365 8T268 -8Q207 -8 166 12T99 65T64 139T53 222V448Q53 511 75 554T134 623T216 660T308 671Q337 671 360 668T399 661T428
652Q415 613 413 605Q407 589 388 595Q380 597 358 600T306 605Q220 605 175 567T130 460V370Q153 379 176 385T226 397T276 403ZM268 67Q315 67 342 79T383 110T400 154T404 203Q404 234 398 258T378 299T339 323T276 332Q243 332 216 328T169 318T131 305V226Q131
185 137 156T159 106T201 77T268 67Z" />
<glyph unicode="7" glyph-name="seven" horiz-adv-x="457" d="M351 666Q411 666 425 635T416 543L158 0H95Q84 0 82 7T81 23Q82 24 355 592H47Q31 592 28 597T24 616V666H351Z" />
<glyph unicode="8" glyph-name="eight" horiz-adv-x="520" d="M386 357Q418 344 438 325T471 284T487 236T492 184Q492 146 479 112T439 51T367 8T259 -8Q203 -8 161 6T90 47T47 108T32 187Q32 247 61 291T150 357Q128 368 110 387Q95 404 83 431T70 499Q70 546
85 579T126 632T187 662T262 671Q356 671 407 629T458 504Q458 462 441 423T386 357ZM262 602Q202 602 173 577T144 507Q144 469 161 445T201 406Q227 389 259 380Q293 386 319 402Q342 416 361 441T380 508Q380 553 353 577T262 602ZM259 67Q292 67 320 74T368
98T401 138T413 194Q413 245 372 279T259 325Q234 318 208 308T161 282T127 246T114 194Q114 157 128 133T164 94T211 73T259 67Z" />
<glyph unicode="9" glyph-name="nine" horiz-adv-x="491" d="M246 245Q205 245 168 254T101 286T55 347T37 445Q37 498 52 540T94 611T157 655T238 671Q310 671 352 651T416 592T444 495T451 361Q451 328 451 288T448 206T433 127T395 58T326 10T217 -8Q194 -8
171 -5T129 4T90 17Q92 25 95 41T101 66Q105 80 112 82T129 82Q133 81 142 79T164 74T191 69T220 67Q263 67 290 77T333 102T358 136T372 172T379 208T381 245T381 282Q366 271 348 264T304 251T246 245ZM242 605Q173 605 144 567T114 457Q114 433 116 408T132
362T171 328T244 315Q276 315 301 320T344 331T377 347V464Q377 491 371 516T350 561T309 593T242 605Z" />
<glyph unicode=":" glyph-name="colon" horiz-adv-x="194" d="M49 51Q49 72 63 86T99 101Q121 101 135 87T150 51Q150 29 136 15T99 0Q78 0 64 14T49 51ZM49 386Q49 407 63 421T99 436Q121 436 135 422T150 386Q150 365 136 351T99 336Q78 336 64 350T49 386Z" />
<glyph unicode=";" glyph-name="semicolon" horiz-adv-x="184" d="M142 62Q148 44 146 24T137 -16T122 -57T104 -95L68 -84Q58 -80 55 -74T57 -52Q62 -38 65 -29T73 0Q59 7 52 19T44 46Q44 67 58 81T94 96Q112 96 124 87T142 62ZM44 386Q44 407 58 421T94 436Q116
436 130 422T145 386Q145 365 131 351T94 336Q73 336 59 350T44 386Z" />
<glyph unicode="&lt;" glyph-name="less" horiz-adv-x="595" d="M49 215V296L529 512V432L137 257L529 80V0L49 215Z" />
<glyph unicode="=" glyph-name="equal" horiz-adv-x="409" d="M87 145Q75 145 68 152T60 169V222H323Q335 222 342 215T350 196V145H87ZM87 278Q75 278 68 285T60 302V355H323Q335 355 342 348T350 329V278H87Z" />
<glyph unicode="&gt;" glyph-name="greater" horiz-adv-x="595" d="M49 0V80L441 257L49 432V512L529 296V215L49 0Z" />
<glyph unicode="?" glyph-name="question" horiz-adv-x="435" d="M196 51Q196 72 182 86T146 101Q125 101 111 87T96 51Q96 29 110 15T146 0Q167 0 181 14T196 51ZM107 305Q107 317 114 325T132 333H200Q266 333 292 356T319 431Q319 492 294 518T220 544Q170
544 135 536Q118 533 111 537T100 552Q98 557 85 600Q104 607 127 612Q147 617 172 620T227 624Q262 624 292 611T345 573T379 513T392 431Q392 389 382 356T347 300T283 268T185 259V147H132Q121 147 114 155T107 175V305Z" />
<glyph unicode="@" glyph-name="at" horiz-adv-x="943" d="M882 334Q882 257 865 196T820 91T753 24T672 0Q642 0 629 12T608 37Q588 23 546 12T444 0Q388 0 350 15T287 58T251 121T240 198Q240 248 254 298T300 390T381 457T499 483Q529 483 557 479T609 468T652
456T683 445L646 95V91Q646 77 658 66T685 54Q712 54 737 76T781 135T811 224T823 333Q823 401 799 457T733 555T633 618T507 641Q418 641 347 609T225 520T148 389T120 229Q120 136 146 62T219 -64T335 -144T487 -172Q526 -172 570 -166T657 -150T735 -125T794
-96V-159Q775 -170 744 -181T672 -202T584 -217T487 -223Q374 -223 294 -186T161 -85T85 59T61 229Q61 330 93 415T185 561T326 657T507 692Q599 692 669 663T786 585T858 470T882 334ZM611 407Q597 412 567 421T501 430Q453 430 418 408T360 351T325 277T313 199Q313
136 350 95T459 54Q473 54 491 55T525 60T556 67T577 77L611 407Z" />
<glyph unicode="A" glyph-name="A" horiz-adv-x="629" d="M595 22Q598 14 595 7T578 0H517L456 170H177L116 0H52Q38 0 37 7T38 22L268 632Q273 647 278 656T293 671T316 678Q329 678 338 672T354 656T365 632L595 22ZM428 246L316 566L204 246H428Z" />
<glyph unicode="B" glyph-name="B" horiz-adv-x="585" d="M398 352Q433 342 457 325T497 286T518 240T525 191Q525 162 518 129T490 67T430 19T329 0H129Q96 0 75 17T54 76V634Q78 646 125 662T245 678Q293 678 335 667T406 634T453 577T470 496Q470 481 466 463T454
425T433 386T398 352ZM129 381H253Q290 381 316 390T358 416T383 452T391 495Q391 546 358 577T252 609Q225 609 203 606T164 600L129 592V381ZM320 75Q362 75 386 86T424 114T441 150T445 188Q445 210 437 231T412 268T368 295T303 305H129V75H320Z" />
<glyph unicode="C" glyph-name="C" horiz-adv-x="566" d="M329 601Q278 601 242 581T182 528T147 448T136 342Q136 208 187 138T351 67Q385 67 408 70T449 79T479 89T506 98Q527 103 527 81V28Q509 17 483 9Q460 2 426 -3T340 -9Q258 -9 205 17T119 91T72 201T59
334Q59 403 72 465T118 574T205 648T340 675Q388 675 423 670T483 657T527 641V580Q527 561 508 567Q485 575 444 588T329 601Z" />
<glyph unicode="D" glyph-name="D" horiz-adv-x="619" d="M276 666Q364 666 420 642T507 575T550 470T562 334Q562 246 547 183T498 79T410 19T276 0H132Q109 0 95 6T72 24T61 48T58 75V593Q58 615 64 629T80 652T104 663T132 666H276ZM280 75Q344 75 383 94T445
148T474 230T482 334Q482 389 475 436T445 518T384 573T280 593H132V75H280Z" />
<glyph unicode="E" glyph-name="E" horiz-adv-x="515" d="M122 593V388H376V338Q376 313 351 313H122V75H475V27Q475 0 447 0H135Q95 0 71 20T46 75V578Q46 613 55 631T80 657T112 665T145 666H475V613Q475 593 453 593H122Z" />
<glyph unicode="F" glyph-name="F" horiz-adv-x="505" d="M126 593V388H369V332Q369 319 363 316T346 313H126V22Q126 9 120 5T103 0H49V558Q49 605 58 626T88 656T164 666H470V615Q470 604 466 599T448 593H126Z" />
<glyph unicode="G" glyph-name="G" horiz-adv-x="612" d="M508 370Q529 370 541 362T553 324V29Q530 18 499 10T426 -3T326 -9Q299 -9 268 -4T207 14T148 52T99 114T64 206T51 334Q51 407 64 461T98 553T148 614T207 651T269 670T327 675Q378 675 417 669T484
655T534 637V582Q534 572 529 568T507 571Q499 575 480 581T436 592T383 601T327 605Q269 605 231 583T169 524T137 437T127 334Q127 203 182 136T353 68Q393 68 423 71T479 86V296H349Q334 296 330 303T326 321V370H508V370Z" />
<glyph unicode="H" glyph-name="H" horiz-adv-x="578" d="M540 666V22Q540 13 536 7T518 0H463V313H129V22Q129 9 123 5T108 0H54V640Q54 651 58 658T76 666H129V388H463V645Q463 655 468 660T482 666H540Z" />
<glyph unicode="I" glyph-name="I" horiz-adv-x="210" d="M151 0H72V645Q72 658 77 662T92 666H151V0Z" />
<glyph unicode="J" glyph-name="J" horiz-adv-x="307" d="M261 666V127Q261 66 229 37T163 0T84 -9Q68 -9 49 -8T10 -1V55Q10 66 15 70T29 73Q42 71 57 71T84 70Q131 70 157 81T183 132V645Q183 656 189 661T205 666H261Z" />
<glyph unicode="K" glyph-name="K" horiz-adv-x="566" d="M152 0H76V645Q76 657 81 661T97 666H152V0ZM460 0L182 286Q168 299 161 309T153 337Q153 353 161 365T184 395L421 666H480Q493 666 495 659T490 642L234 337Q536 23 537 22Q545 14 544 7T527 0H460Z" />
<glyph unicode="L" glyph-name="L" horiz-adv-x="493" d="M464 75V22Q464 14 461 7T443 0H203Q163 0 135 11T89 41T63 86T54 145V645Q54 666 73 666H130V166Q130 116 151 96T217 75H464Z" />
<glyph unicode="M" glyph-name="M" horiz-adv-x="789" d="M632 640Q642 656 659 662T694 665T724 647T737 606V22Q737 11 733 6T715 0H663V548L449 243Q429 216 401 216T352 243L138 548V20Q138 14 136 7T116 0H64V605Q64 632 76 647T106 665T141 663T168 640L400
299L632 640V640Z" />
<glyph unicode="N" glyph-name="N" horiz-adv-x="640" d="M585 666V64Q585 37 574 22T546 2T512 6T480 34L150 542V28Q150 8 142 4T126 0H74V607Q74 630 85 645T112 664T147 662T179 633L511 120V645Q511 654 515 660T528 666H585Z" />
<glyph unicode="O" glyph-name="O" horiz-adv-x="655" d="M328 676Q418 676 472 647T556 568T594 459T603 334Q603 268 594 208T556 98T473 20T328 -9Q238 -9 184 20T101 98T62 207T53 334Q53 398 62 458T100 568T184 646T328 676ZM328 609Q263 609 226 588T169
530T141 443T133 334Q133 274 140 224T168 136T226 78T328 57Q392 57 430 78T488 136T515 223T522 334Q522 393 516 443T489 530T430 588T328 609Z" />
<glyph unicode="P" glyph-name="P" horiz-adv-x="585" d="M289 678Q349 678 395 662T472 615T518 543T534 448Q534 397 523 349T484 267T410 211T288 188Q259 188 227 192T173 202T138 214V0H62V619Q91 635 123 647T197 668T289 678ZM297 264Q359 265 389 285T436
334T455 393T458 448Q458 477 451 505T425 555T375 590T298 604Q255 604 226 599T175 588T138 573V295Q151 287 173 280T227 269T297 264Z" />
<glyph unicode="Q" glyph-name="Q" horiz-adv-x="658" d="M333 675Q421 675 476 649T560 575T598 467T608 334Q608 276 601 224T576 130T528 58T454 12L587 -11V-63Q587 -71 582 -76T562 -79Q558 -79 542 -75T503 -66T452 -53T395 -38Q327 -20 243 1Q183 16 147
49T91 126T65 224T59 334Q59 405 69 466T108 575T191 648T333 675ZM333 609Q269 609 232 588T174 531T147 444T140 334Q140 275 146 225T173 137T231 80T333 59Q398 59 435 79T493 137T520 224T527 334Q527 393 520 443T493 530T436 588T333 609Z" />
<glyph unicode="R" glyph-name="R" horiz-adv-x="599" d="M571 22Q578 10 573 5T558 0H487L297 265H136V0H61V627Q91 641 123 651T196 670T280 678Q401 678 462 625T524 466Q524 400 491 351T385 277Q569 24 571 22ZM305 335Q329 335 354 342T399 367T433 411T446
478Q446 517 433 542T396 582T337 603T259 609Q233 609 211 606T172 597T136 585V335H305Z" />
<glyph unicode="S" glyph-name="S" horiz-adv-x="576" d="M502 585Q502 576 496 572T480 571Q464 574 446 579T403 589T349 599T288 604Q236 604 205 596T158 574T136 539T131 493Q131 455 146 435T186 404T238 391T287 385T331 381T381 372T435 354T485 322T521
270T535 195Q535 153 524 116T483 52T405 8T281 -8Q256 -8 226 -5T166 3T110 14T63 28V83Q63 93 69 97T84 98Q93 95 110 90T152 79T207 70T271 66Q371 66 414 97T457 190Q457 235 433 259T377 295T310 310T249 316T187 327T122 353T74 404T54 488Q54 544 73 580T123
638T196 667T286 675Q334 675 373 669T444 655T502 635V585Z" />
<glyph unicode="T" glyph-name="T" horiz-adv-x="527" d="M501 666V616Q501 603 495 598T476 592H301V0H224V592H25V646Q25 655 31 660T50 666H501Z" />
<glyph unicode="U" glyph-name="U" horiz-adv-x="625" d="M570 666V56Q543 38 510 25T431 2T347 -8T286 -7T240 -1T192 11T138 35T79 96T50 212V641Q50 655 56 660T76 666H127V221Q127 178 141 151T177 106T226 82T277 72T341 69T407 74T454 85T494 100V638Q494
655 499 660T517 666H570Z" />
<glyph unicode="V" glyph-name="V" horiz-adv-x="603" d="M557 666Q569 666 574 659T575 633L358 56Q347 27 335 11T300 -6Q277 -6 266 10T243 56L25 637Q20 649 25 657T48 666H93L300 114L509 666H557V666Z" />
<glyph unicode="W" glyph-name="W" horiz-adv-x="855" d="M808 666Q819 666 824 661T824 635L690 56Q683 28 671 11T629 -6Q609 -6 594 11T568 56L422 418L290 56Q280 28 267 11T230 -6Q205 -6 191 11T170 56L36 635Q32 647 36 656T59 666H105L234 108L413 600H461Q470
600 476 594T481 578L458 516L624 99L755 666H808V666Z" />
<glyph unicode="X" glyph-name="X" horiz-adv-x="597" d="M330 423L482 666H550Q564 666 565 659T563 646L372 334L566 27Q576 12 573 6T557 0H486L337 242Q326 260 314 278T296 316Q290 296 279 278T257 242L112 0H40Q28 0 25 6T31 27L222 334L32 646Q28 652
29 659T44 666H113L261 424Q264 418 276 400T296 364Q303 383 314 400T330 423Z" />
<glyph unicode="Y" glyph-name="Y" horiz-adv-x="634" d="M592 666Q601 666 605 660T606 643Q424 376 355 275V23Q355 14 352 7T335 0H280V275L30 643Q26 652 30 659T44 666H101L318 354L533 666H592V666Z" />
<glyph unicode="Z" glyph-name="Z" horiz-adv-x="580" d="M545 75V23Q545 15 542 8T523 0H97Q78 0 58 14T38 55T50 97L441 592H74Q57 592 50 599T43 616V666H472Q503 666 520 652T540 614T520 561L138 75H545Z" />
<glyph unicode="[" glyph-name="bracketleft" horiz-adv-x="294" d="M79 0V680H252V628H153V52H252V0H79Z" />
<glyph unicode="\" glyph-name="backslash" horiz-adv-x="363" d="M269 -61Q15 627 13 631Q8 649 14 656T32 664H94Q348 -24 349 -28Q355 -46 349 -53T331 -61H269Z" />
<glyph unicode="]" glyph-name="bracketright" horiz-adv-x="294" d="M43 0V52H142V628H43V680H216V0H43Z" />
<glyph unicode="^" glyph-name="asciicircum" horiz-adv-x="595" d="M376 385L298 599L223 385H158Q145 385 144 390T146 407Q157 435 170 468T196 532T218 586T231 618Q235 627 240 638T253 658T272 674T298 681Q327 681 342 662T368 618Q374 605 383 581T405
527T429 466T453 407Q457 396 450 391T436 385H376Z" />
<glyph unicode="_" glyph-name="underscore" horiz-adv-x="448" d="M88 -77Q76 -77 68 -71T60 -52V0H356Q368 0 375 -6T383 -25V-77H88Z" />
<glyph unicode="`" glyph-name="grave" horiz-adv-x="171" d="M91 528L-13 666H63L147 528H91Z" />
<glyph unicode="a" glyph-name="a" horiz-adv-x="466" d="M220 444Q258 444 291 437T350 414T391 369T406 299V32Q385 19 359 10T299 -7T219 -14Q177 -14 147 -7T91 17T49 62T33 130Q33 183 74 213T185 252T285 264T331 269V309Q331 319 326 330T307 350T273 364T220
370Q181 370 148 364T92 351Q70 344 70 364V420Q90 427 111 432T159 440T220 444ZM330 193Q315 192 299 191T262 187T205 182T138 166T108 125Q108 96 137 78T218 60Q261 60 287 64T330 77V193Z" />
<glyph unicode="b" glyph-name="b" horiz-adv-x="494" d="M97 664Q111 664 120 657T129 632V414Q167 427 195 431T255 436Q313 436 351 419T406 377T431 338T444 306T451 267T453 218Q453 171 444 131T418 67T384 32T345 11T301 -2T255 -7Q210 -7 173 0T106 16T51
39V664H97ZM129 75Q155 65 184 61T238 56Q280 56 311 70T355 106T372 157T376 218Q376 266 366 296T338 344T299 368T255 374Q210 374 183 368T129 348V75Z" />
<glyph unicode="c" glyph-name="c" horiz-adv-x="448" d="M368 75Q390 80 394 59L402 16Q383 9 362 4T314 -4T256 -7Q196 -7 156 10T93 59T61 127T52 210Q52 258 61 298T93 370T157 419T256 437Q291 437 329 432T402 414V368Q402 349 381 352Q380 352 368 355T338
362T298 368T255 370Q212 369 188 354T150 316T133 268T129 210Q129 179 133 157T150 112T187 76T255 62Q276 62 295 64T331 68T357 73T368 75Z" />
<glyph unicode="d" glyph-name="d" horiz-adv-x="503" d="M416 664Q434 664 440 657T447 632V39Q423 26 394 16Q369 7 335 0T259 -7Q201 -7 155 10T86 58T54 131T45 220Q45 243 50 280T75 351T134 411T243 436Q275 436 307 431T369 415V664H416ZM369 348Q356 354
344 359T319 367T288 372T249 374Q228 374 206 368T165 345T134 298T122 220Q122 185 127 155T148 103T190 69T262 56Q306 56 330 63T369 75V348Z" />
<glyph unicode="e" glyph-name="e" horiz-adv-x="462" d="M419 292Q419 257 409 234T379 195T332 174T273 167H119Q124 109 163 86T255 62Q277 62 293 64T321 68T342 73T359 79Q368 82 376 80T384 65V20Q366 12 347 7T303 -3T252 -7Q223 -7 187 0T118 30T63 92T40
200Q40 281 63 329T118 402T186 436T246 444Q272 444 302 436T358 410T401 363T419 292ZM241 237Q300 237 323 248T346 292Q346 335 319 358T246 382Q210 382 186 369T146 335T125 288T118 237H241Z" />
<glyph unicode="f" glyph-name="f" horiz-adv-x="356" d="M250 664Q280 664 307 660T352 650Q350 636 348 622T342 599Q339 590 334 587T314 587Q294 590 270 591T223 588T187 568T172 524V436H304V389Q304 375 299 370T282 365H172V22Q172 8 167 4T150 0H94V365H50V411Q50
424 56 430T76 436H94V545Q94 579 107 602T143 639T193 658T250 664Z" />
<glyph unicode="g" glyph-name="g" horiz-adv-x="498" d="M250 444Q290 444 325 436T388 418T443 392V-4Q443 -110 390 -158T229 -206Q209 -206 186 -204T144 -196T117 -186T112 -164L123 -114Q136 -118 151 -121T186 -127T230 -129Q275 -129 302 -120T343 -95T361
-59T365 -15V21Q347 14 320 8T251 1Q218 1 181 8T112 39T59 106T38 221Q38 236 41 259T52 306T75 355T113 400T170 432T250 444ZM365 360Q342 368 320 373T264 378Q190 378 156 342T121 222Q121 187 127 159T149 111T191 79T257 68Q299 68 325 74T365 86V360Z"
/>
<glyph unicode="h" glyph-name="h" horiz-adv-x="484" d="M267 436Q355 436 394 400T434 295V23Q434 11 429 6T414 0H355V297Q355 374 267 374Q195 374 143 349V23Q143 11 139 6T124 0H64V664H116Q143 664 143 638V406Q172 421 204 428T267 436Z" />
<glyph unicode="i" glyph-name="i" horiz-adv-x="232" d="M152 549Q152 526 138 513T102 499Q82 499 67 512T52 549Q52 572 67 585T102 598Q123 598 137 585T152 549ZM185 75Q194 75 198 70T202 56V0H142Q129 0 116 4T91 20T72 50T64 97V436H120Q132 436 137 433T142
415V100Q142 89 146 84T157 77T171 75T185 75Z" />
<glyph unicode="j" glyph-name="j" horiz-adv-x="280" d="M219 549Q219 526 205 513T169 499Q149 499 134 512T119 549Q119 572 134 585T169 598Q190 598 204 585T219 549ZM133 436H187Q201 436 206 431T212 414V-68Q212 -101 203 -130T174 -180T125 -213T55 -226Q35
-226 15 -223T-25 -215T-50 -204T-51 -181L-39 -135Q-24 -140 -7 -144T44 -148Q75 -148 92 -139T119 -113T130 -75T133 -28V436Z" />
<glyph unicode="k" glyph-name="k" horiz-adv-x="471" d="M131 0H55V664H106Q115 664 123 658T131 634V0ZM213 236Q389 67 405 52T432 27T443 16Q449 10 447 5T435 0H365L170 182Q158 194 145 207T132 237Q132 257 145 269T175 298L327 436H391Q401 436 404 431T399
417Q397 414 213 236Z" />
<glyph unicode="l" glyph-name="l" horiz-adv-x="274" d="M239 23Q243 6 228 1Q216 -3 198 -5T161 -7Q129 -7 109 2T78 27T63 67T58 119V664H110Q124 664 130 655T136 632V106Q136 83 146 73T185 62Q204 62 213 64T229 68L239 23V23Z" />
<glyph unicode="m" glyph-name="m" horiz-adv-x="774" d="M57 385Q85 399 116 409T184 428T263 436Q309 436 343 425T397 391Q433 412 476 424T554 436Q634 436 664 411T704 356T715 293V23Q715 15 713 11T706 3T691 0H637V292Q637 330 616 351T554 374Q512 374
480 365T420 343Q422 334 423 318T425 292V22Q425 15 423 11T417 3T404 0H348V297Q345 372 263 374Q224 374 193 368T135 351V24Q135 17 134 12T128 4T114 0H57V385V385Z" />
<glyph unicode="n" glyph-name="n" horiz-adv-x="492" d="M51 385Q76 399 106 409T175 428T263 436Q316 436 342 429T383 408T406 380T419 352T426 319T429 282V23Q429 13 425 7T410 0H352V290Q352 318 344 334T321 360T288 371T247 374Q219 374 185 367T131 351V23Q131
13 126 7T107 0H51V385V385Z" />
<glyph unicode="o" glyph-name="o" horiz-adv-x="501" d="M247 444Q356 444 403 387T451 219Q451 166 441 125T406 56T343 12T247 -6Q138 -6 91 51T43 219Q43 270 53 311T88 382T151 428T247 444ZM247 56Q286 57 311 68T350 99T369 150T374 219Q374 253 370 283T353
334T314 368T247 381Q209 381 185 371T147 341T127 291T121 219Q121 182 125 153T142 102T180 70T247 56Z" />
<glyph unicode="p" glyph-name="p" horiz-adv-x="529" d="M58 396Q84 407 115 415T185 430T274 436Q332 436 371 419T433 371T465 300T474 214Q474 169 466 129T434 58T371 10T274 -7Q243 -7 205 -1T136 22V-182Q136 -197 127 -203T103 -209H58V396ZM136 90Q163
79 196 67T276 56Q316 55 341 72T377 113T393 160T397 214Q397 245 393 273T376 324T340 359T274 373Q189 373 136 348V90Z" />
<glyph unicode="q" glyph-name="q" horiz-adv-x="510" d="M251 436Q314 436 366 424T455 393V-182Q455 -195 449 -201T431 -208H376V23Q347 7 315 0T251 -7Q193 -7 154 10T92 59T60 129T51 215Q51 261 60 300T92 370T154 418T251 436ZM376 353Q363 357 352 361T327
367T298 371T259 373Q217 373 190 360T149 324T132 275T128 215Q128 184 132 161T149 116T185 81T251 67Q295 67 322 73T376 92V353Z" />
<glyph unicode="r" glyph-name="r" horiz-adv-x="407" d="M60 308Q60 329 71 351T104 392T160 423T240 436Q267 436 292 434T335 427T364 418T376 404T373 379Q367 360 362 345Q350 348 334 351T296 357T246 360Q214 360 194 353T161 336T145 315T140 293V23Q140
11 134 6T113 0H60V308Z" />
<glyph unicode="s" glyph-name="s" horiz-adv-x="453" d="M374 375Q372 366 366 360T347 359Q333 364 304 368T232 373Q196 373 176 368T145 355T133 336T131 315Q131 286 156 277T231 264T315 251T368 226T395 182T402 128Q402 102 392 78T359 35T299 5T206 -7Q174
-7 148 -4T101 4T60 16V66Q60 72 62 76T67 82T79 82Q99 77 131 72T208 66Q244 66 267 70T303 83T321 102T326 127Q326 141 324 152T311 171T280 184T217 194T140 208T88 233T61 268T55 310Q55 333 64 356T94 399T151 429T237 440Q270 440 296 437T343 428T381 417L374
375Z" />
<glyph unicode="t" glyph-name="t" horiz-adv-x="339" d="M147 360V126Q148 90 165 77T227 64Q241 64 260 67T285 71Q293 73 297 70T301 55V9Q295 4 270 -1T206 -7Q183 -7 159 -1T116 21T83 60T70 119V561L129 576Q134 578 137 577T144 572T147 558V436H282V384Q282
371 277 366T262 360H147Z" />
<glyph unicode="u" glyph-name="u" horiz-adv-x="478" d="M232 -7Q181 -7 147 8T92 46T62 98T53 155V413Q53 425 57 430T72 436H131V153Q131 114 158 91T232 67Q276 67 302 73T353 92V413Q353 425 359 430T374 436H431V44Q409 29 381 19T317 1T232 -7Z" />
<glyph unicode="v" glyph-name="v" horiz-adv-x="482" d="M443 436Q451 436 455 431T455 414Q424 334 395 258T352 148T316 56Q305 31 290 12T246 -7Q218 -7 204 12T179 56L39 414Q35 425 39 430T53 436H116L246 75L378 436H443V436Z" />
<glyph unicode="w" glyph-name="w" horiz-adv-x="727" d="M692 436Q697 436 701 432T702 418L561 56Q551 32 540 18T518 -2T491 -7Q476 -7 465 -1T445 18T424 56Q421 64 369 198L314 56Q303 31 295 19T274 0T245 -7Q230 -7 219 -1T198 18T177 56L37 414Q33 425
34 430T50 436H114L246 75L376 436H445Q450 436 454 432T455 417L409 305L493 75L623 436H692V436Z" />
<glyph unicode="x" glyph-name="x" horiz-adv-x="484" d="M450 26Q458 16 455 8T437 0H378L246 181L115 0H58Q43 0 39 9T42 26L190 230L52 413Q45 422 46 429T57 436H126L246 279L366 436H430Q443 436 445 431T443 417Q338 276 303 230L450 26V26Z" />
<glyph unicode="y" glyph-name="y" horiz-adv-x="529" d="M483 436Q493 436 496 432T496 417Q493 409 478 368T415 204T347 23Q323 -44 302 -91T255 -169T198 -213T118 -227Q92 -227 69 -222Q55 -218 52 -212T50 -195L62 -144Q72 -146 88 -149T123 -152Q144 -152
159 -145T187 -127T207 -104T226 -75T258 0H234Q222 0 214 13Q207 30 192 66T157 146T118 237T80 324T52 389T39 417Q36 424 37 430T52 436H118L277 56L410 436H483V436Z" />
<glyph unicode="z" glyph-name="z" horiz-adv-x="472" d="M438 75V23Q438 10 435 5T418 0H85Q73 0 66 6T58 23V60L327 368H93Q82 368 76 372T70 390V436H400Q415 436 421 430T427 414V368L169 75H438Z" />
<glyph unicode="{" glyph-name="braceleft" horiz-adv-x="340" d="M244 0Q190 0 158 26T126 109V204Q126 261 111 293T54 327V380Q96 382 111 417T126 509V572Q126 629 159 654T244 680H298V628H272Q231 628 216 606T201 550V476Q201 431 184 399T120 355Q167
343 184 313T201 236V131Q201 97 218 75T272 52H298V0H244Z" />
<glyph unicode="|" glyph-name="bar" horiz-adv-x="297" d="M117 0V680H181V0H117Z" />
<glyph unicode="}" glyph-name="braceright" horiz-adv-x="342" d="M287 327Q244 325 230 293T216 204V109Q216 51 183 26T98 0H43V52H70Q107 52 124 75T141 131V236Q141 285 158 314T222 355Q176 367 159 399T141 476V550Q141 584 126 606T70 628H43V680H98Q150
680 183 655T216 572V509Q216 451 230 417T287 380V327V327Z" />
<glyph unicode="~" glyph-name="asciitilde" horiz-adv-x="595" d="M529 315Q524 253 492 222T417 191Q387 191 356 200T295 220T236 241T182 250Q158 250 145 234T126 196H66Q71 258 102 289T178 321Q208 321 239 312T300 292T358 271T413 262Q436 262 450 277T469
315H529V315Z" />
</font>
</defs>
</svg>
